<svg width="136" height="136" viewBox="0 0 136 136" fill="none" xmlns="http://www.w3.org/2000/svg">
<g id="ico_search">
<path id="Vector" d="M79.3333 79.3333L102 102M60.4444 86.8889C56.9717 86.8889 53.533 86.2049 50.3246 84.8759C47.1162 83.547 44.201 81.5991 41.7454 79.1435C39.2898 76.6879 37.3419 73.7727 36.013 70.5643C34.684 67.3559 34 63.9172 34 60.4444C34 56.9717 34.684 53.533 36.013 50.3246C37.3419 47.1162 39.2898 44.201 41.7454 41.7454C44.201 39.2898 47.1162 37.3419 50.3246 36.013C53.533 34.684 56.9717 34 60.4444 34C67.4579 34 74.1842 36.7861 79.1435 41.7454C84.1028 46.7047 86.8889 53.4309 86.8889 60.4444C86.8889 67.4579 84.1028 74.1842 79.1435 79.1435C74.1842 84.1028 67.4579 86.8889 60.4444 86.8889Z" stroke="#009568" stroke-width="5" stroke-linecap="round" stroke-linejoin="round"/>
<circle id="Ellipse 25" cx="68" cy="68" r="66.5" stroke="#009568" stroke-width="3"/>
</g>
</svg>
