<svg width="136" height="136" viewBox="0 0 136 136" fill="none" xmlns="http://www.w3.org/2000/svg">
<g id="ico_briefing">
<path id="Vector" d="M56.8571 86.1111H79.1429M56.8571 74.9444H79.1429M71.7143 34H53.8857C49.7257 34 47.6457 34 46.056 34.8114C44.6581 35.5249 43.5217 36.6638 42.8097 38.0647C42 39.6578 42 41.7422 42 45.9111V89.0889C42 93.2578 42 95.3422 42.8097 96.9353C43.5219 98.336 44.6583 99.4748 46.056 100.189C47.642 101 49.722 101 53.8746 101H82.1254C86.278 101 88.3543 101 89.9403 100.189C91.3406 99.4739 92.4771 98.3349 93.1903 96.9353C94 95.3422 94 93.2652 94 89.1038V57.5468L93.9963 56.3333M71.7143 34C72.7766 34.0112 73.4451 34.0521 74.084 34.2047C74.8417 34.3908 75.5697 34.6886 76.2346 35.0981C76.9849 35.5596 77.6274 36.2036 78.9089 37.4914L90.5197 49.1234C91.8049 50.4113 92.4437 51.0515 92.9043 51.8034C93.3129 52.4734 93.61 53.1955 93.7957 53.9548C93.9443 54.5988 93.9851 55.2725 93.9963 56.3333M71.7143 34V44.4222C71.7143 48.5911 71.7143 50.6756 72.524 52.2687C73.2362 53.6694 74.3726 54.8082 75.7703 55.5219C77.3563 56.3333 79.4363 56.3333 83.5889 56.3333H93.9963" stroke="#009568" stroke-width="5" stroke-linecap="round" stroke-linejoin="round"/>
<circle id="Ellipse 26" cx="68" cy="68" r="66.5" stroke="#009568" stroke-width="3"/>
</g>
</svg>
