<svg width="136" height="136" viewBox="0 0 136 136" fill="none" xmlns="http://www.w3.org/2000/svg">
<g id="ico_post">
<circle id="Ellipse 25" cx="68" cy="68" r="66.5" stroke="#009568" stroke-width="3"/>
<path id="Vector" d="M58.018 72.9793L77.0877 53.91M96.5904 42.2779L80.4956 94.5907C79.0514 99.2813 78.3313 101.627 77.0838 102.402C76.5527 102.734 75.9499 102.934 75.3256 102.986C74.7014 103.038 74.0737 102.941 73.495 102.701C72.1373 102.138 71.0394 99.9463 68.8436 95.5548L58.6515 75.1632C58.4409 74.692 58.1866 74.2414 57.8921 73.8175C57.6873 73.5508 57.4492 73.3115 57.1837 73.1052C56.7733 72.8212 56.3372 72.5762 55.8812 72.3733L35.4459 62.15C31.0582 59.9542 28.8624 58.8563 28.2997 57.5027C28.0596 56.9233 27.9615 56.295 28.0136 55.6701C28.0656 55.0451 28.2662 54.4416 28.5987 53.91C29.374 52.6665 31.7193 51.9424 36.41 50.4983L88.7279 34.4038C92.4152 33.2666 94.2568 32.7 95.5043 33.1604C96.0401 33.3571 96.5267 33.6681 96.9304 34.0717C97.334 34.4754 97.645 34.962 97.8418 35.4978C98.2982 36.7413 97.7316 38.5829 96.5983 42.2661V42.274L96.5904 42.2779Z" stroke="#009568" stroke-width="5" stroke-linecap="round" stroke-linejoin="round"/>
</g>
</svg>
