<svg width="136" height="136" viewBox="0 0 136 136" fill="none" xmlns="http://www.w3.org/2000/svg">
<g id="ico_prototype">
<g id="Group 6">
<path id="Vector" d="M63.7526 66.4154H67.9217M63.7526 66.4154C62.928 66.4154 62.122 66.6599 61.4364 67.118C60.7508 67.5762 60.2164 68.2273 59.9009 68.9891C59.5853 69.7509 59.5027 70.5892 59.6636 71.3979C59.8245 72.2066 60.2215 72.9495 60.8046 73.5326C61.3877 74.1156 62.1305 74.5127 62.9393 74.6735C63.748 74.8344 64.5863 74.7519 65.3481 74.4363C66.1099 74.1208 66.761 73.5864 67.2191 72.9008C67.6772 72.2152 67.9217 71.4091 67.9217 70.5845V66.4154M63.7526 66.4154C62.6469 66.4154 61.5865 65.9762 60.8046 65.1943C60.0227 64.4125 59.5835 63.352 59.5835 62.2463C59.5835 61.1406 60.0227 60.0802 60.8046 59.2983C61.5865 58.5164 62.6469 58.0772 63.7526 58.0772M67.9217 66.4154V62.2463M63.7526 58.0772H67.9217M63.7526 58.0772C62.6469 58.0772 61.5865 57.6379 60.8046 56.8561C60.0227 56.0742 59.5835 55.0138 59.5835 53.9081C59.5835 52.8024 60.0227 51.7419 60.8046 50.9601C61.5865 50.1782 62.6469 49.739 63.7526 49.739H67.9217M67.9217 62.2463V58.0772M67.9217 62.2463C67.9217 63.0709 68.1662 63.8769 68.6244 64.5625C69.0825 65.2482 69.7336 65.7825 70.4954 66.0981C71.2572 66.4136 72.0955 66.4962 72.9042 66.3353C73.7129 66.1744 74.4558 65.7774 75.0389 65.1943C75.6219 64.6113 76.019 63.8684 76.1799 63.0597C76.3407 62.2509 76.2582 61.4127 75.9426 60.6509C75.6271 59.889 75.0927 59.2379 74.4071 58.7798C73.7215 58.3217 72.9154 58.0772 72.0908 58.0772M67.9217 62.2463C67.9217 61.1406 68.361 60.0802 69.1428 59.2983C69.9247 58.5164 70.9851 58.0772 72.0908 58.0772M67.9217 58.0772V49.739M67.9217 58.0772H72.0908M67.9217 49.739H72.0908C73.1966 49.739 74.257 50.1782 75.0389 50.9601C75.8207 51.7419 76.26 52.8024 76.26 53.9081C76.26 55.0138 75.8207 56.0742 75.0389 56.8561C74.257 57.6379 73.1966 58.0772 72.0908 58.0772" stroke="#009568" stroke-width="2" stroke-linecap="round" stroke-linejoin="round"/>
<path id="Vector_2" d="M82.3749 103.937H54.0249M30.3999 74.6425V48.1825C30.3999 42.8905 30.3999 40.2445 31.43 38.2222C32.3372 36.4409 33.7783 34.9997 35.5596 34.0925C37.5819 33.0625 40.2279 33.0625 45.5199 33.0625H90.8799C96.1719 33.0625 98.8179 33.0625 100.835 34.0925C102.617 34.9997 104.063 36.4409 104.97 38.2222C106 40.2398 106 42.8858 106 48.1683V74.6567C106 79.9392 106 82.5805 104.97 84.5981C104.063 86.378 102.615 87.8252 100.835 88.7324C98.8179 89.7625 96.1766 89.7625 90.8941 89.7625H45.5057C40.2232 89.7625 37.5772 89.7625 35.5596 88.7324C33.781 87.825 32.3354 86.3777 31.43 84.5981C30.3999 82.5805 30.3999 79.9345 30.3999 74.6425Z" stroke="#009568" stroke-width="5" stroke-linecap="round" stroke-linejoin="round"/>
</g>
<circle id="Ellipse 27" cx="68" cy="68" r="66.5" stroke="#009568" stroke-width="3"/>
</g>
</svg>
